<svg width="61" height="61" viewBox="0 0 61 61" fill="none" xmlns="http://www.w3.org/2000/svg">
<path opacity="0.21" d="M37.666 0.046875C50.3686 0.046875 60.666 10.3443 60.666 23.0469V37.0469C60.666 49.7494 50.3686 60.0469 37.666 60.0469H23.666C10.9635 60.0469 0.666016 49.7494 0.666016 37.0469V23.0469C0.666016 10.3443 10.9635 0.046875 23.666 0.046875H37.666Z" fill="#4AD991"/>
<path d="M19.7771 40.9358H43.1105C43.9696 40.9358 44.666 41.6322 44.666 42.4913C44.666 43.3504 43.9696 44.0469 43.1105 44.0469H18.2216C17.3625 44.0469 16.666 43.3504 16.666 42.4913V17.6024C16.666 16.7433 17.3625 16.0469 18.2216 16.0469C19.0807 16.0469 19.7771 16.7433 19.7771 17.6024V40.9358Z" fill="#4AD991"/>
<path opacity="0.5" d="M25.5791 34.2218C24.9915 34.8486 24.0071 34.8804 23.3803 34.2928C22.7536 33.7052 22.7218 32.7208 23.3094 32.094L29.1427 25.8718C29.711 25.2657 30.6553 25.2131 31.2873 25.7524L35.8913 29.6812L41.89 22.0829C42.4223 21.4086 43.4005 21.2936 44.0748 21.8259C44.7491 22.3582 44.8642 23.3364 44.3318 24.0107L37.3318 32.8774C36.7851 33.5699 35.7724 33.6696 35.1012 33.0968L30.3971 29.0826L25.5791 34.2218Z" fill="#4AD991"/>
</svg>
