<svg width="60" height="61" viewBox="0 0 60 61" fill="none" xmlns="http://www.w3.org/2000/svg">
<path opacity="0.21" d="M37 0.046875C49.7025 0.046875 60 10.3443 60 23.0469V37.0469C60 49.7494 49.7025 60.0469 37 60.0469H23C10.2975 60.0469 0 49.7494 0 37.0469V23.0469C0 10.3443 10.2975 0.046875 23 0.046875H37Z" fill="#FFAE47"/>
<path d="M32.7004 37.7773H23.3004C22.5604 37.7773 21.8104 37.2473 21.5604 36.5573L17.4204 24.9673C16.9104 23.5073 17.2804 22.8373 17.6804 22.5373C18.0804 22.2373 18.8304 22.0573 20.0904 22.9573L23.9904 25.7473C24.1104 25.8173 24.2204 25.8473 24.3004 25.8273C24.3904 25.7973 24.4604 25.7173 24.5104 25.5773L26.2704 20.8873C26.8004 19.4873 27.5804 19.2773 28.0004 19.2773C28.4204 19.2773 29.2004 19.4873 29.7304 20.8873L31.4904 25.5773C31.5404 25.7073 31.6104 25.7973 31.7004 25.8273C31.7904 25.8573 31.9004 25.8273 32.0104 25.7373L35.6704 23.1273C37.0104 22.1673 37.7904 22.3573 38.2204 22.6673C38.6404 22.9873 39.0304 23.6973 38.4804 25.2473L34.4404 36.5573C34.1904 37.2473 33.4404 37.7773 32.7004 37.7773ZM18.6804 23.8573C18.7004 23.9973 18.7404 24.1973 18.8404 24.4573L22.9804 36.0473C23.0204 36.1473 23.2004 36.2773 23.3004 36.2773H32.7004C32.8104 36.2773 32.9904 36.1473 33.0204 36.0473L37.0604 24.7473C37.2004 24.3673 37.2404 24.1073 37.2504 23.9573C37.1004 24.0073 36.8704 24.1173 36.5404 24.3573L32.8804 26.9673C32.3804 27.3173 31.7904 27.4273 31.2604 27.2673C30.7304 27.1073 30.3004 26.6873 30.0804 26.1173L28.3204 21.4273C28.1904 21.0773 28.0704 20.9073 28.0004 20.8273C27.9304 20.9073 27.8104 21.0773 27.6804 21.4173L25.9204 26.1073C25.7104 26.6773 25.2804 27.0973 24.7404 27.2573C24.2104 27.4173 23.6104 27.3073 23.1204 26.9573L19.2204 24.1673C18.9904 24.0073 18.8104 23.9073 18.6804 23.8573Z" fill="#E98506"/>
<path d="M33.5 40.7969H22.5C22.09 40.7969 21.75 40.4569 21.75 40.0469C21.75 39.6369 22.09 39.2969 22.5 39.2969H33.5C33.91 39.2969 34.25 39.6369 34.25 40.0469C34.25 40.4569 33.91 40.7969 33.5 40.7969Z" fill="#E98506"/>
<path d="M30.5 32.7969H25.5C25.09 32.7969 24.75 32.4569 24.75 32.0469C24.75 31.6369 25.09 31.2969 25.5 31.2969H30.5C30.91 31.2969 31.25 31.6369 31.25 32.0469C31.25 32.4569 30.91 32.7969 30.5 32.7969Z" fill="#E98506"/>
</svg>
