<svg width="61" height="61" viewBox="0 0 61 61" fill="none" xmlns="http://www.w3.org/2000/svg">
<path opacity="0.21" d="M37.333 0.046875C50.0356 0.046875 60.333 10.3443 60.333 23.0469V37.0469C60.333 49.7494 50.0356 60.0469 37.333 60.0469H23.333C10.6305 60.0469 0.333008 49.7494 0.333008 37.0469V23.0469C0.333008 10.3443 10.6305 0.046875 23.333 0.046875H37.333Z" fill="#8280FF"/>
<path opacity="0.587821" d="M38.333 24.7139C40.5421 24.7139 42.333 26.5047 42.333 28.7139C42.3328 30.9229 40.542 32.7139 38.333 32.7139C36.1241 32.7137 34.3332 30.9227 34.333 28.7139C34.333 26.5048 36.124 24.714 38.333 24.7139ZM26.333 18.0469C29.2784 18.0469 31.6668 20.4345 31.667 23.3799C31.667 26.3254 29.2785 28.7139 26.333 28.7139C23.3876 28.7137 21 26.3253 21 23.3799C21.0002 20.4346 23.3877 18.0471 26.333 18.0469Z" fill="#8280FF"/>
<path d="M26.3104 31.3799C32.6941 31.3799 37.9391 34.4374 38.33 40.9795C38.3455 41.2401 38.3296 42.0469 37.328 42.0469H15.3026C14.9682 42.0465 14.3057 41.3251 14.3339 40.9785C14.8508 34.6152 20.0154 31.38 26.3104 31.3799ZM37.8017 34.0488C42.3433 34.0986 46.0517 36.3934 46.3309 41.2461C46.3422 41.4416 46.3307 42.0469 45.6073 42.0469H40.4667C40.4667 39.0462 39.4746 36.2769 37.8017 34.0488Z" fill="#8280FF"/>
</svg>
